<svg width="220" height="150" viewBox="0 0 220 150" fill="none" xmlns="http://www.w3.org/2000/svg">
  <filter id="s" x="42" y="20" width="150" height="118" color-interpolation-filters="sRGB">
    <feDropShadow dx="0" dy="16" stdDeviation="15" flood-color="#719DF0" flood-opacity=".24"/>
  </filter>
  <g filter="url(#s)">
    <path d="M68 86c24-8 45 1 49 13V46c-9-14-32-20-49-10v50Z" fill="#fff"/>
    <path d="M117 99c7-14 27-22 50-17V35c-23-6-42 1-50 11v53Z" fill="#fff"/>
    <path d="M66 91c24-9 45 1 51 14 8-15 28-24 52-18" stroke="#75A9F7" stroke-width="8" stroke-linejoin="round"/>
    <path d="M60 101h118v18H60z" fill="#5A95ED"/>
    <path d="M76 48h27M75 61h29M133 48h28M132 61h25" stroke="#D4E4FF" stroke-width="4" stroke-linecap="round"/>
  </g>
</svg>
