<svg xmlns="http://www.w3.org/2000/svg" viewBox="0 0 720 720">
  <defs>
    <filter id="shadow" x="-20%" y="-20%" width="140%" height="150%">
      <feDropShadow dx="0" dy="22" stdDeviation="18" flood-color="#708099" flood-opacity=".22"/>
    </filter>
  </defs>
  <rect width="720" height="720" rx="14" fill="#f1f5fa"/>
  <ellipse cx="244" cy="610" rx="128" ry="20" fill="#c7d1dd" opacity=".55"/>
  <ellipse cx="492" cy="610" rx="138" ry="22" fill="#c7d1dd" opacity=".55"/>
  <g filter="url(#shadow)" transform="translate(118 88) rotate(-11 150 250)">
    <path d="M93 426c-42-29-44-90-5-124 71-63 101-150 115-232 36 12 63 33 82 64-26 98-13 172 42 229 26 27 20 73-14 92-67 38-158 16-220-29Z" fill="#f7f7f2"/>
    <path d="M200 72c37 11 67 34 88 68l-39 170c-7 35 7 70 38 89l35 22c-16 45-89 62-156 33 24-94 38-207 34-382Z" fill="#2a3037"/>
    <path d="M96 426c47 32 145 55 218 19 26-13 37-42 22-66l43 35c-1 33-23 61-59 75-87 33-177 6-238-37-25-17-26-41-14-62 5 14 14 27 28 36Z" fill="#11161c"/>
    <path d="M245 141c39 17 62 42 75 78l-42 16c-16-34-35-58-56-73l23-21Z" fill="#ffcf22"/>
    <path d="M207 75c31 10 55 27 75 51l-24 34c-20-20-40-34-59-41l8-44Z" fill="#f7f7f2"/>
  </g>
  <g filter="url(#shadow)" transform="translate(305 122) rotate(8 165 246)">
    <path d="M57 337c42-56 83-137 97-238 4-26 22-43 45-49 92-23 172 56 175 145l5 152c1 42-27 79-68 88-86 19-176-5-244-55-14-10-18-29-10-43Z" fill="#cbd5df"/>
    <path d="M125 251c58 40 137 55 250 41l2 56c1 40-25 73-64 81-85 19-173-5-241-54-15-11-18-32-8-46 21-28 41-54 61-78Z" fill="#f8f8f5"/>
    <path d="M146 102c15-39 46-53 90-46 71 12 120 72 124 143l4 65c-83 17-158 4-224-36 17-38 24-76 6-126Z" fill="#b9c7d2"/>
    <path d="M139 222c77 55 155 70 234 43l3 54c-85 18-169 3-251-46l14-51Z" fill="#eef2f6"/>
    <path d="M166 151c35 3 70 20 104 50M149 189c39 5 79 22 119 52M131 225c40 8 80 25 120 50" stroke="#2e3740" stroke-width="10" stroke-linecap="round"/>
    <path d="M248 71c35 18 59 44 73 78" stroke="#1b2229" stroke-width="18" stroke-linecap="round"/>
    <path d="M200 115c30 3 61 17 93 42" stroke="#d64a67" stroke-width="10" stroke-linecap="round"/>
    <path d="M228 167c22 11 42 24 61 41" stroke="#d64a67" stroke-width="8" stroke-linecap="round"/>
    <path d="M130 387c47 19 102 31 168 27" stroke="#d1d7de" stroke-width="14" stroke-linecap="round"/>
  </g>
</svg>
